<svg xmlns="http://www.w3.org/2000/svg" viewBox="0 0 960 960" width="960" height="960">
  <path d="M 508.0,946.5 L 461.0,946.5 L 460.0,945.5 L 446.0,945.5 L 445.0,944.5 L 426.0,943.5 L 425.0,942.5 L 412.0,941.5 L 411.0,940.5 L 385.0,936.5 L 332.0,921.5 L 288.0,903.5 L 254.0,885.5 L 210.0,856.5 L 176.0,828.5 L 144.5,797.0 L 110.5,755.0 L 86.5,718.0 L 67.5,682.0 L 50.5,641.0 L 38.5,603.0 L 28.5,556.0 L 26.5,535.0 L 25.5,534.0 L 25.5,525.0 L 24.5,524.0 L 24.5,512.0 L 23.5,511.0 L 23.5,453.0 L 24.5,452.0 L 26.5,423.0 L 27.5,422.0 L 28.5,409.0 L 30.5,403.0 L 33.5,383.0 L 42.5,349.0 L 50.5,325.0 L 65.5,289.0 L 76.5,267.0 L 91.5,241.0 L 107.5,217.0 L 126.5,192.0 L 146.5,169.0 L 174.0,141.5 L 192.0,125.5 L 234.0,93.5 L 243.0,87.5 L 246.0,87.5 L 246.5,89.0 L 231.5,106.0 L 213.5,131.0 L 191.5,167.0 L 170.5,210.0 L 154.5,255.0 L 147.5,284.0 L 145.5,302.0 L 144.5,303.0 L 144.5,310.0 L 143.5,311.0 L 143.5,323.0 L 142.5,324.0 L 143.5,365.0 L 144.5,366.0 L 146.5,385.0 L 151.5,406.0 L 157.5,424.0 L 168.5,449.0 L 177.5,465.0 L 195.5,491.0 L 220.0,518.5 L 235.0,530.5 L 254.0,542.5 L 273.0,551.5 L 293.0,557.5 L 305.0,558.5 L 306.0,559.5 L 324.0,559.5 L 339.0,556.5 L 358.0,548.5 L 370.0,540.5 L 387.5,524.0 L 399.5,505.0 L 407.5,487.0 L 414.5,465.0 L 419.5,440.0 L 419.5,432.0 L 420.5,431.0 L 420.5,390.0 L 419.5,389.0 L 419.5,380.0 L 413.5,349.0 L 405.5,323.0 L 397.5,303.0 L 387.5,284.0 L 387.5,282.0 L 375.5,263.0 L 346.0,233.5 L 327.0,220.5 L 306.0,209.5 L 304.0,209.5 L 302.5,207.0 L 345.5,159.0 L 356.0,148.5 L 358.0,148.5 L 384.0,164.5 L 400.0,177.5 L 418.5,196.0 L 437.5,220.0 L 437.5,211.0 L 436.5,210.0 L 434.5,190.0 L 425.5,159.0 L 412.5,130.0 L 396.5,105.0 L 480.0,9.5 L 483.5,12.0 L 563.5,103.0 L 562.5,107.0 L 555.5,117.0 L 545.5,136.0 L 535.5,160.0 L 526.5,191.0 L 522.5,221.0 L 524.5,220.0 L 526.5,216.0 L 539.5,200.0 L 560.0,179.5 L 583.0,161.5 L 604.0,148.5 L 606.0,148.5 L 608.5,151.0 L 658.5,208.0 L 638.0,217.5 L 615.0,233.5 L 596.5,251.0 L 585.5,264.0 L 574.5,280.0 L 564.5,300.0 L 553.5,331.0 L 548.5,351.0 L 545.5,372.0 L 544.5,373.0 L 544.5,379.0 L 543.5,380.0 L 542.5,408.0 L 541.5,409.0 L 542.5,436.0 L 543.5,437.0 L 543.5,445.0 L 544.5,446.0 L 546.5,462.0 L 554.5,489.0 L 563.5,508.0 L 575.5,526.0 L 588.0,538.5 L 604.0,549.5 L 620.0,556.5 L 640.0,560.5 L 655.0,560.5 L 656.0,559.5 L 668.0,558.5 L 685.0,553.5 L 716.0,537.5 L 741.0,518.5 L 755.5,503.0 L 769.5,485.0 L 785.5,460.0 L 799.5,432.0 L 811.5,398.0 L 816.5,377.0 L 818.5,358.0 L 819.5,357.0 L 820.5,309.0 L 819.5,308.0 L 819.5,298.0 L 818.5,297.0 L 816.5,278.0 L 807.5,242.0 L 795.5,210.0 L 776.5,172.0 L 756.5,140.0 L 737.5,114.0 L 716.5,90.0 L 716.0,86.5 L 725.0,90.5 L 757.0,114.5 L 785.0,137.5 L 808.0,158.5 L 843.5,197.0 L 862.5,222.0 L 877.5,245.0 L 884.5,257.0 L 905.5,301.0 L 922.5,351.0 L 934.5,406.0 L 937.5,434.0 L 938.5,435.0 L 938.5,444.0 L 939.5,445.0 L 940.5,469.0 L 941.5,470.0 L 939.5,518.0 L 938.5,519.0 L 937.5,537.0 L 936.5,538.0 L 936.5,545.0 L 935.5,546.0 L 931.5,576.0 L 929.5,581.0 L 923.5,611.0 L 910.5,653.0 L 895.5,690.0 L 875.5,729.0 L 852.5,765.0 L 819.5,806.0 L 792.0,833.5 L 762.0,858.5 L 718.0,887.5 L 683.0,905.5 L 640.0,922.5 L 637.0,922.5 L 627.0,926.5 L 597.0,934.5 L 560.0,941.5 L 554.0,941.5 L 553.0,942.5 L 525.0,944.5 L 524.0,945.5 L 509.0,945.5 L 508.0,946.5 Z" fill="#000000"/>
</svg>
